<svg xmlns="http://www.w3.org/2000/svg" xmlns:xlink="http://www.w3.org/1999/xlink" width="244" height="100" viewBox="0 0 244 100"><defs><clipPath id="b"><rect width="244" height="100"/></clipPath></defs><g id="a" clip-path="url(#b)"><path d="M2.981.379H7.642V-42.546l1.463-.7a39.424,39.424,0,0,0,10.352-7.371c3.2-3.089,4.77-5.583,4.77-7.425V-76.258c-.65-4.5-2.276-7.479-4.932-9.051q-2.764-1.626-9.105-1.626H2.981ZM19.512-58.047c0,1.951-2.6,4.77-7.913,8.238l-3.957,2.6v-35.5L10.3-82.6c5.691.217,8.78,2.276,9.16,5.854l.054.271Zm20-26.016,5.854,64.931H32.411l5.908-64.931ZM26.124,0h4.5l1.247-14.038H45.907L47.153,0h4.553L44.064-86.936H33.712ZM71.109-50.243c3.577-3.36,5.474-5.962,5.474-7.967V-76.367c-.7-4.5-2.331-7.479-4.986-9q-2.845-1.626-9.268-1.626H55.012V.054h4.715V-42.763l1.463-.7,1.626-.813,3.2-1.734L74.036.054H78.7L70.08-49.267ZM59.728-82.762l2.71.108c5.8.217,8.943,2.222,9.322,5.8V-58.21c0,1.951-2.656,4.661-8.021,8.184L59.728-47.37Zm24.281-4.011V0h4.715V-86.773Zm13.6,2.927a10.518,10.518,0,0,0-3.577,7.967v17.506l19.729,13.821L113.6-10.244a5.743,5.743,0,0,1-2.168,4.553,7.829,7.829,0,0,1-5.257,1.9,7.829,7.829,0,0,1-5.257-1.9,5.743,5.743,0,0,1-2.168-4.553V-30.189H94.036v19.945a10.518,10.518,0,0,0,3.577,7.967A11.9,11.9,0,0,0,106.176.976a12.082,12.082,0,0,0,8.563-3.252,10.518,10.518,0,0,0,3.577-7.967v-36.8L98.643-60.757l.108-15.122a5.743,5.743,0,0,1,2.168-4.553,7.829,7.829,0,0,1,5.257-1.9,7.829,7.829,0,0,1,5.257,1.9,5.743,5.743,0,0,1,2.168,4.553v12.195h4.715V-75.879a10.518,10.518,0,0,0-3.577-7.967,12.13,12.13,0,0,0-8.563-3.306A11.949,11.949,0,0,0,97.613-83.846Z" transform="translate(1 93)" fill="#fff"/><g transform="translate(153.166 4.058)"><text transform="translate(43.834 40.942)" fill="#fff" font-size="49" font-family="ThinDesign, Thin Design" letter-spacing="0.002em"><tspan x="-44.054" y="0">EST UNE</tspan></text><text transform="translate(41.834 86.942)" fill="#b4b4b4" font-size="48" font-family="ThinDesign, Thin Design" letter-spacing="0.13em"><tspan x="-42.105" y="0">PHOTO</tspan></text></g><line y2="84.541" transform="translate(138.379 9.13)" fill="none" stroke="#ffc000" stroke-width="3"/></g></svg>